<mxfile host="Electron" modified="2024-03-01T09:06:29.032Z" agent="Mozilla/5.0 (Windows NT 10.0; Win64; x64) AppleWebKit/537.36 (KHTML, like Gecko) draw.io/23.1.5 Chrome/120.0.6099.109 Electron/28.1.0 Safari/537.36" etag="q1lhuEOFhMXhs3LYWBvU" version="23.1.5" type="device">
  <diagram name="Page-1" id="-Z5FX3_OyzdihcRbiZDe">
    <mxGraphModel dx="989" dy="582" grid="1" gridSize="10" guides="1" tooltips="1" connect="1" arrows="1" fold="1" page="1" pageScale="1" pageWidth="850" pageHeight="1100" math="0" shadow="0">
      <root>
        <mxCell id="0" />
        <mxCell id="1" parent="0" />
        <mxCell id="UAYWx_qrf0lr8xYgkL4C-2" value="&lt;i&gt;&amp;nbsp; &amp;nbsp; &amp;nbsp; &amp;nbsp; &amp;nbsp; &amp;nbsp; &amp;nbsp; &amp;nbsp; &amp;nbsp; &amp;nbsp; &amp;nbsp; &amp;nbsp; exekuce tasku A&lt;/i&gt;" style="rounded=0;whiteSpace=wrap;html=1;fillColor=#d5e8d4;strokeColor=#82b366;" parent="1" vertex="1">
          <mxGeometry x="136" y="332" width="245" height="60" as="geometry" />
        </mxCell>
        <mxCell id="UAYWx_qrf0lr8xYgkL4C-4" value="&lt;i&gt;tak A je naplanovany&lt;/i&gt;" style="rounded=0;whiteSpace=wrap;html=1;fillColor=#dae8fc;strokeColor=#6c8ebf;" parent="1" vertex="1">
          <mxGeometry x="136" y="332" width="80" height="60" as="geometry" />
        </mxCell>
        <mxCell id="UAYWx_qrf0lr8xYgkL4C-6" value="&lt;i&gt;a_i&lt;/i&gt;&lt;br&gt;(task je ready&lt;br&gt;&amp;nbsp;pro exekuci)" style="text;html=1;align=center;verticalAlign=middle;whiteSpace=wrap;rounded=0;" parent="1" vertex="1">
          <mxGeometry x="20" y="401" width="150" height="30" as="geometry" />
        </mxCell>
        <mxCell id="UAYWx_qrf0lr8xYgkL4C-7" value="" style="endArrow=classic;startArrow=classic;html=1;rounded=0;" parent="1" edge="1">
          <mxGeometry width="50" height="50" relative="1" as="geometry">
            <mxPoint x="216" y="322" as="sourcePoint" />
            <mxPoint x="381" y="322" as="targetPoint" />
          </mxGeometry>
        </mxCell>
        <mxCell id="UAYWx_qrf0lr8xYgkL4C-8" value="&lt;i&gt;c_i&lt;/i&gt;&lt;br&gt;(nutna doba pro dokonceni tasku)" style="text;html=1;align=center;verticalAlign=middle;whiteSpace=wrap;rounded=0;" parent="1" vertex="1">
          <mxGeometry x="246" y="282" width="100" height="30" as="geometry" />
        </mxCell>
        <mxCell id="UAYWx_qrf0lr8xYgkL4C-9" value="&lt;i&gt;d_i&lt;/i&gt;&lt;br&gt;(absolutni deadline)" style="text;html=1;align=center;verticalAlign=middle;whiteSpace=wrap;rounded=0;" parent="1" vertex="1">
          <mxGeometry x="385" y="401" width="60" height="30" as="geometry" />
        </mxCell>
        <mxCell id="UAYWx_qrf0lr8xYgkL4C-10" value="" style="endArrow=none;dashed=1;html=1;rounded=0;" parent="1" edge="1">
          <mxGeometry width="50" height="50" relative="1" as="geometry">
            <mxPoint x="135" y="560" as="sourcePoint" />
            <mxPoint x="135.31" y="240" as="targetPoint" />
          </mxGeometry>
        </mxCell>
        <mxCell id="UAYWx_qrf0lr8xYgkL4C-11" value="" style="endArrow=none;dashed=1;html=1;rounded=0;" parent="1" edge="1">
          <mxGeometry width="50" height="50" relative="1" as="geometry">
            <mxPoint x="443" y="492" as="sourcePoint" />
            <mxPoint x="443" y="242" as="targetPoint" />
          </mxGeometry>
        </mxCell>
        <mxCell id="UAYWx_qrf0lr8xYgkL4C-15" value="&lt;i&gt;s_i&lt;/i&gt;&lt;br&gt;(zacatek &lt;br&gt;exekuce &lt;br&gt;tasku)" style="text;html=1;align=center;verticalAlign=middle;whiteSpace=wrap;rounded=0;" parent="1" vertex="1">
          <mxGeometry x="191" y="408" width="45" height="30" as="geometry" />
        </mxCell>
        <mxCell id="UAYWx_qrf0lr8xYgkL4C-16" value="&lt;i&gt;f_i&lt;/i&gt;&lt;br&gt;(konec&lt;br&gt;exekuce &lt;br&gt;tasku)" style="text;html=1;align=center;verticalAlign=middle;whiteSpace=wrap;rounded=0;" parent="1" vertex="1">
          <mxGeometry x="325" y="404" width="60" height="36" as="geometry" />
        </mxCell>
        <mxCell id="UAYWx_qrf0lr8xYgkL4C-18" value="" style="endArrow=classic;startArrow=classic;html=1;rounded=0;" parent="1" edge="1">
          <mxGeometry width="50" height="50" relative="1" as="geometry">
            <mxPoint x="141" y="272" as="sourcePoint" />
            <mxPoint x="441" y="272" as="targetPoint" />
          </mxGeometry>
        </mxCell>
        <mxCell id="UAYWx_qrf0lr8xYgkL4C-19" value="&lt;i&gt;D_i&lt;/i&gt;&lt;br&gt;(relativni deadline)" style="text;html=1;align=center;verticalAlign=middle;whiteSpace=wrap;rounded=0;" parent="1" vertex="1">
          <mxGeometry x="216" y="240" width="115" height="30" as="geometry" />
        </mxCell>
        <mxCell id="UAYWx_qrf0lr8xYgkL4C-20" value="" style="endArrow=none;dashed=1;html=1;rounded=0;" parent="1" edge="1">
          <mxGeometry width="50" height="50" relative="1" as="geometry">
            <mxPoint x="381" y="492" as="sourcePoint" />
            <mxPoint x="381" y="332" as="targetPoint" />
          </mxGeometry>
        </mxCell>
        <mxCell id="UAYWx_qrf0lr8xYgkL4C-21" value="" style="endArrow=classic;startArrow=classic;html=1;rounded=0;" parent="1" edge="1">
          <mxGeometry width="50" height="50" relative="1" as="geometry">
            <mxPoint x="141" y="482" as="sourcePoint" />
            <mxPoint x="371" y="482" as="targetPoint" />
          </mxGeometry>
        </mxCell>
        <mxCell id="UAYWx_qrf0lr8xYgkL4C-22" value="&lt;i&gt;R_i&lt;/i&gt;&lt;br&gt;(response time)" style="text;html=1;align=center;verticalAlign=middle;whiteSpace=wrap;rounded=0;" parent="1" vertex="1">
          <mxGeometry x="191" y="486" width="100" height="30" as="geometry" />
        </mxCell>
        <mxCell id="UAYWx_qrf0lr8xYgkL4C-23" value="" style="endArrow=classic;startArrow=classic;html=1;rounded=0;" parent="1" edge="1">
          <mxGeometry width="50" height="50" relative="1" as="geometry">
            <mxPoint x="382" y="482" as="sourcePoint" />
            <mxPoint x="442" y="482" as="targetPoint" />
          </mxGeometry>
        </mxCell>
        <mxCell id="UAYWx_qrf0lr8xYgkL4C-24" value="&lt;i&gt;L_i&lt;/i&gt;&lt;br&gt;(cas opozdeni)" style="text;html=1;align=center;verticalAlign=middle;whiteSpace=wrap;rounded=0;" parent="1" vertex="1">
          <mxGeometry x="361" y="486" width="100" height="30" as="geometry" />
        </mxCell>
        <mxCell id="T0haVHS-OpPubR6M1t-z-3" value="&lt;i&gt;&amp;nbsp; &amp;nbsp; &amp;nbsp; &amp;nbsp; &amp;nbsp; &amp;nbsp; &amp;nbsp; &amp;nbsp; &amp;nbsp; &amp;nbsp; &amp;nbsp; &amp;nbsp; exekuce tasku A&lt;/i&gt;" style="rounded=0;whiteSpace=wrap;html=1;fillColor=#d5e8d4;strokeColor=#82b366;" vertex="1" parent="1">
          <mxGeometry x="461" y="332" width="245" height="60" as="geometry" />
        </mxCell>
        <mxCell id="T0haVHS-OpPubR6M1t-z-4" value="&lt;i&gt;tak A je naplanovany&lt;/i&gt;" style="rounded=0;whiteSpace=wrap;html=1;fillColor=#dae8fc;strokeColor=#6c8ebf;" vertex="1" parent="1">
          <mxGeometry x="461" y="332" width="80" height="60" as="geometry" />
        </mxCell>
        <mxCell id="T0haVHS-OpPubR6M1t-z-5" value="" style="endArrow=none;html=1;rounded=0;" edge="1" parent="1">
          <mxGeometry width="50" height="50" relative="1" as="geometry">
            <mxPoint x="91" y="392" as="sourcePoint" />
            <mxPoint x="740" y="392" as="targetPoint" />
          </mxGeometry>
        </mxCell>
        <mxCell id="T0haVHS-OpPubR6M1t-z-6" value="" style="endArrow=none;dashed=1;html=1;rounded=0;" edge="1" parent="1">
          <mxGeometry width="50" height="50" relative="1" as="geometry">
            <mxPoint x="460" y="560" as="sourcePoint" />
            <mxPoint x="460.43" y="240" as="targetPoint" />
          </mxGeometry>
        </mxCell>
        <mxCell id="T0haVHS-OpPubR6M1t-z-7" value="" style="endArrow=classic;startArrow=classic;html=1;rounded=0;" edge="1" parent="1">
          <mxGeometry width="50" height="50" relative="1" as="geometry">
            <mxPoint x="136" y="534" as="sourcePoint" />
            <mxPoint x="460" y="534" as="targetPoint" />
          </mxGeometry>
        </mxCell>
        <mxCell id="T0haVHS-OpPubR6M1t-z-8" value="&lt;i&gt;P_i&lt;/i&gt;&lt;br&gt;(interval mezi 2 aktivacemi i-teho tasku)" style="text;html=1;align=center;verticalAlign=middle;whiteSpace=wrap;rounded=0;" vertex="1" parent="1">
          <mxGeometry x="231.5" y="544" width="129" height="30" as="geometry" />
        </mxCell>
      </root>
    </mxGraphModel>
  </diagram>
</mxfile>
